<svg width="162" height="81" viewBox="0 0 162 81" fill="none" xmlns="http://www.w3.org/2000/svg">
<g filter="url(#filter0_dd_22_341)">
<path d="M25.12 41.96L4.84 42V38.16L14.4 30.08C18.36 26.72 19.68 24.8 19.68 22C19.68 18.68 17.88 16.8 14.8 16.8C11.6 16.8 9.6 19.04 9.56 22.8H4.48C4.52 16.4 8.6 12.24 14.8 12.24C21.04 12.24 24.92 15.8 24.92 21.72C24.92 25.8 22.68 28.88 18.24 32.68L12.96 37.2H25.12V41.96ZM36.1416 40.24C36.1416 43.56 33.7416 46.2 30.5016 46.6V44.64C32.3016 44.32 33.6616 43.24 33.6616 41.84C33.3416 42 32.9816 42.08 32.5016 42.08C30.9416 42.08 29.6616 40.92 29.6616 39.32C29.6616 37.4 30.9016 36.12 32.7016 36.12C34.7016 36.12 36.1416 37.76 36.1416 40.24ZM39.0169 27.44C39.0169 18.36 43.8969 12.2 51.3769 12.2C58.8569 12.2 63.7769 18.36 63.7769 27.44C63.7769 36.48 59.1369 42.52 51.3769 42.52C43.6169 42.52 39.0169 36.48 39.0169 27.44ZM44.0569 27.44C44.0569 34.2 46.7769 38 51.3769 38C56.0169 38 58.7369 34.2 58.7369 27.44C58.7369 20.52 56.0169 16.72 51.3769 16.72C46.7769 16.72 44.0569 20.52 44.0569 27.44ZM67.22 27.44C67.22 18.36 72.1 12.2 79.58 12.2C87.06 12.2 91.98 18.36 91.98 27.44C91.98 36.48 87.34 42.52 79.58 42.52C71.82 42.52 67.22 36.48 67.22 27.44ZM72.26 27.44C72.26 34.2 74.98 38 79.58 38C84.22 38 86.94 34.2 86.94 27.44C86.94 20.52 84.22 16.72 79.58 16.72C74.98 16.72 72.26 20.52 72.26 27.44ZM95.4231 27.44C95.4231 18.36 100.303 12.2 107.783 12.2C115.263 12.2 120.183 18.36 120.183 27.44C120.183 36.48 115.543 42.52 107.783 42.52C100.023 42.52 95.4231 36.48 95.4231 27.44ZM100.463 27.44C100.463 34.2 103.183 38 107.783 38C112.423 38 115.143 34.2 115.143 27.44C115.143 20.52 112.423 16.72 107.783 16.72C103.183 16.72 100.463 20.52 100.463 27.44ZM125.106 26.48H133.066V18.52H137.146V26.48H145.106V30.56H137.146V38.56H133.066V30.56H125.106V26.48Z" fill="black"/>
<path d="M5.544 69H4.392V57.544H5.544V62.648H11.736V57.544H12.872V69H11.736V63.72H5.544V69ZM15.9773 59.128C15.5293 59.128 15.1613 58.76 15.1613 58.312C15.1613 57.864 15.5293 57.48 15.9773 57.48C16.4253 57.48 16.8093 57.864 16.8093 58.312C16.8093 58.76 16.4253 59.128 15.9773 59.128ZM15.4333 69V61.256H16.5373V69H15.4333ZM18.3115 64.904C18.3115 62.792 19.6715 61.048 21.9435 61.048C23.2875 61.048 24.3115 61.672 24.8075 62.808L24.9195 61.256H25.8795V68.76C25.8795 71.064 24.4075 72.568 22.1355 72.568C20.1515 72.568 18.7595 71.448 18.4555 69.576H19.5595C19.7995 70.824 20.7595 71.56 22.1515 71.56C23.7355 71.56 24.7915 70.488 24.7915 68.872V67.032C24.2635 68.12 23.1915 68.76 21.8635 68.76C19.6555 68.76 18.3115 67.016 18.3115 64.904ZM19.4155 64.888C19.4155 66.472 20.3915 67.768 22.0235 67.768C23.7035 67.768 24.6955 66.552 24.6955 64.888C24.6955 63.24 23.7355 62.024 22.0395 62.024C20.3755 62.024 19.4155 63.32 19.4155 64.888ZM29.2873 68.984H28.1833V57.336H29.2873V62.6C29.7833 61.672 30.7273 61.048 32.0233 61.048C34.0553 61.048 34.9673 62.312 34.9673 64.264V69H33.8633V64.504C33.8633 62.696 33.0153 62.056 31.8153 62.056C30.1513 62.056 29.2873 63.288 29.2873 64.776V68.984ZM37.0396 65.288V64.296H41.6796V65.288H37.0396ZM53.1351 69.656L51.9191 68.28C51.0551 68.872 50.0151 69.192 48.8471 69.192C45.6311 69.192 43.3911 66.744 43.3911 63.272C43.3911 59.8 45.6471 57.336 48.8471 57.336C52.0631 57.336 54.3031 59.784 54.3031 63.272C54.3031 65.048 53.7111 66.552 52.7191 67.592L53.9191 68.936L53.1351 69.656ZM53.1191 63.272C53.1191 60.408 51.3751 58.456 48.8471 58.456C46.3191 58.456 44.5911 60.408 44.5911 63.272C44.5911 66.136 46.3191 68.088 48.8471 68.088C49.7271 68.088 50.5111 67.848 51.1511 67.432L49.6631 65.752L50.4311 65.032L51.9511 66.728C52.6871 65.88 53.1191 64.68 53.1191 63.272ZM61.592 61.256H62.696V69H61.736L61.592 67.688C61.16 68.584 60.088 69.192 58.872 69.192C57.048 69.192 56.056 67.944 56.056 66.056V61.24H57.176V65.704C57.176 67.544 57.992 68.2 59.224 68.2C60.712 68.2 61.592 67.208 61.592 65.368V61.256ZM67.2198 69.192C65.5718 69.192 64.5958 68.264 64.5958 66.904C64.5958 65.48 65.6838 64.584 67.4918 64.44L70.0518 64.232V63.976C70.0518 62.456 69.1398 61.976 68.0038 61.976C66.6598 61.976 65.8598 62.584 65.8598 63.624H64.8518C64.8518 62.056 66.1318 61.048 68.0358 61.048C69.8278 61.048 71.1398 61.944 71.1398 63.992V69H70.2118L70.0678 67.64C69.5878 68.616 68.5318 69.192 67.2198 69.192ZM67.4758 68.296C69.1078 68.296 70.0518 67.16 70.0518 65.48V65.064L67.7638 65.24C66.3078 65.368 65.7158 66.008 65.7158 66.872C65.7158 67.816 66.4198 68.296 67.4758 68.296ZM74.5071 69H73.4031V57.336H74.5071V69ZM77.3991 59.128C76.9511 59.128 76.5831 58.76 76.5831 58.312C76.5831 57.864 76.9511 57.48 77.3991 57.48C77.8471 57.48 78.2311 57.864 78.2311 58.312C78.2311 58.76 77.8471 59.128 77.3991 59.128ZM76.8551 69V61.256H77.9591V69H76.8551ZM82.0374 69H80.9494V62.184H79.3974V61.256H80.9494V58.808H82.0374V61.256H83.5894V62.184H82.0374V69ZM84.243 72.376V71.464H85.091C85.763 71.464 86.435 71.416 86.819 70.376L87.155 69.464L84.019 61.256H85.187L87.683 68.008L90.131 61.256H91.267L87.715 70.776C87.267 71.992 86.515 72.488 85.411 72.488C84.947 72.488 84.595 72.456 84.243 72.376ZM101.604 64.792H98.3878V69H97.2358V57.544H101.604C103.812 57.544 105.204 58.984 105.204 61.144C105.204 63.224 103.796 64.792 101.604 64.792ZM101.444 58.584H98.3878V63.752H101.38C103.044 63.752 104.004 62.696 104.004 61.128C104.004 59.544 103.028 58.584 101.444 58.584ZM110.872 61.16V62.152H110.264C108.84 62.152 107.928 63.112 107.928 64.584V69H106.824V61.256H107.864L107.944 62.456C108.248 61.624 109.064 61.08 110.152 61.08C110.392 61.08 110.6 61.096 110.872 61.16ZM111.499 65.128C111.499 62.76 113.163 61.048 115.435 61.048C117.707 61.048 119.371 62.76 119.371 65.128C119.371 67.48 117.707 69.192 115.435 69.192C113.163 69.192 111.499 67.48 111.499 65.128ZM112.619 65.112C112.619 66.936 113.771 68.2 115.435 68.2C117.083 68.2 118.251 66.936 118.251 65.112C118.251 63.32 117.083 62.04 115.435 62.04C113.771 62.04 112.619 63.32 112.619 65.112ZM124.176 69.192C121.92 69.192 120.592 67.464 120.592 65.144C120.592 62.808 121.92 61.048 124.224 61.048C125.504 61.048 126.528 61.608 127.072 62.728V57.336H128.176V69H127.216L127.104 67.416C126.56 68.616 125.472 69.192 124.176 69.192ZM124.368 68.184C126.064 68.184 127.056 66.904 127.056 65.112C127.056 63.336 126.064 62.04 124.368 62.04C122.688 62.04 121.712 63.336 121.712 65.112C121.712 66.904 122.688 68.184 124.368 68.184ZM135.92 61.256H137.024V69H136.064L135.92 67.688C135.488 68.584 134.416 69.192 133.2 69.192C131.376 69.192 130.384 67.944 130.384 66.056V61.24H131.504V65.704C131.504 67.544 132.32 68.2 133.552 68.2C135.04 68.2 135.92 67.208 135.92 65.368V61.256ZM138.624 65.144C138.624 62.712 140.112 61.048 142.368 61.048C144.16 61.048 145.472 62.088 145.776 63.688H144.672C144.384 62.616 143.456 62.024 142.384 62.024C140.816 62.024 139.712 63.224 139.712 65.128C139.712 66.968 140.736 68.2 142.304 68.2C143.456 68.2 144.384 67.56 144.688 66.568H145.808C145.44 68.152 144.064 69.192 142.304 69.192C140.112 69.192 138.624 67.576 138.624 65.144ZM149.256 69H148.168V62.184H146.616V61.256H148.168V58.808H149.256V61.256H150.808V62.184H149.256V69ZM151.59 66.824H152.646C152.646 67.72 153.318 68.28 154.406 68.28C155.606 68.28 156.31 67.768 156.31 66.936C156.31 66.296 155.99 65.928 155.078 65.704L153.75 65.368C152.406 65.032 151.75 64.328 151.75 63.272C151.75 61.912 152.886 61.048 154.55 61.048C156.182 61.048 157.238 61.944 157.286 63.384H156.214C156.182 62.488 155.558 61.96 154.518 61.96C153.43 61.96 152.822 62.424 152.822 63.256C152.822 63.848 153.238 64.264 154.086 64.472L155.414 64.808C156.758 65.144 157.366 65.768 157.366 66.888C157.366 68.28 156.182 69.192 154.422 69.192C152.678 69.192 151.59 68.264 151.59 66.824Z" fill="black" fill-opacity="0.6"/>
</g>
<defs>
<filter id="filter0_dd_22_341" x="-1" y="0" width="164" height="82" filterUnits="userSpaceOnUse" color-interpolation-filters="sRGB">
<feFlood flood-opacity="0" result="BackgroundImageFix"/>
<feColorMatrix in="SourceAlpha" type="matrix" values="0 0 0 0 0 0 0 0 0 0 0 0 0 0 0 0 0 0 127 0" result="hardAlpha"/>
<feOffset dy="4"/>
<feGaussianBlur stdDeviation="2"/>
<feComposite in2="hardAlpha" operator="out"/>
<feColorMatrix type="matrix" values="0 0 0 0 0 0 0 0 0 0 0 0 0 0 0 0 0 0 0.25 0"/>
<feBlend mode="normal" in2="BackgroundImageFix" result="effect1_dropShadow_22_341"/>
<feColorMatrix in="SourceAlpha" type="matrix" values="0 0 0 0 0 0 0 0 0 0 0 0 0 0 0 0 0 0 127 0" result="hardAlpha"/>
<feOffset dy="4"/>
<feGaussianBlur stdDeviation="2"/>
<feComposite in2="hardAlpha" operator="out"/>
<feColorMatrix type="matrix" values="0 0 0 0 0 0 0 0 0 0 0 0 0 0 0 0 0 0 0.25 0"/>
<feBlend mode="normal" in2="effect1_dropShadow_22_341" result="effect2_dropShadow_22_341"/>
<feBlend mode="normal" in="SourceGraphic" in2="effect2_dropShadow_22_341" result="shape"/>
</filter>
</defs>
</svg>
